<svg width="200" height="47" viewBox="0 0 200 47" fill="none" xmlns="http://www.w3.org/2000/svg">
<mask id="mask0_2_30" style="mask-type:luminance" maskUnits="userSpaceOnUse" x="0" y="0" width="200" height="47">
<path d="M200 0.5224H0V46.5657H200V0.5224Z" fill="white"/>
</mask>
<g mask="url(#mask0_2_30)">
<path d="M1.93201 20.4913C3.1045 18.171 4.91893 16.219 7.16901 14.8573C9.39902 13.5368 11.9625 12.8536 14.569 12.8851C16.7399 12.837 18.8885 13.3213 20.819 14.2938C22.5022 15.1488 23.9682 16.3619 25.109 17.8441V13.3909H33.231V44.6101H25.11V40.0454C23.9992 41.5739 22.5302 42.8198 20.826 43.6788C18.8789 44.6654 16.7103 45.1595 14.518 45.1159C11.9218 45.1413 9.37277 44.4367 7.17401 43.0859C4.92331 41.6848 3.11121 39.7035 1.93701 37.36C0.608703 34.728 -0.0555115 31.8228 1.02732e-05 28.888C-0.0578052 25.9781 0.603612 23.0975 1.92801 20.4913M23.954 24.0699C23.2401 22.7539 22.1624 21.6607 20.844 20.9149C19.5669 20.19 18.1155 19.8109 16.639 19.8163C15.1568 19.8019 13.6989 20.1857 12.4243 20.9259C11.1496 21.6661 10.107 22.7343 9.41001 24.0141C8.59102 25.5114 8.18405 27.1913 8.22901 28.889C8.18893 30.6039 8.59534 32.3006 9.41001 33.8196C10.1265 35.156 11.2017 36.2761 12.52 37.0597C13.7607 37.7992 15.1861 38.1892 16.639 38.1866C18.1155 38.192 19.5669 37.8128 20.844 37.088C22.1626 36.3417 23.2403 35.2478 23.954 33.9311C24.7123 32.3933 25.1061 30.7079 25.1061 29.0005C25.1061 27.2931 24.7123 25.6077 23.954 24.0699Z" fill="white"/>
<path d="M49.9751 13.3909H41.9101V44.6101H49.9751V13.3909Z" fill="white"/>
<path d="M60.6931 20.4913C61.8562 18.1756 63.6682 16.2309 65.9178 14.8841C68.1674 13.5372 70.7619 12.8436 73.3991 12.8841C75.4538 12.88 77.4826 13.3329 79.3321 14.2087C81.0999 15.0074 82.64 16.2188 83.8171 17.7364V2.9104H91.9991V44.6101H83.8201V39.9896C82.777 41.569 81.3265 42.8513 79.6151 43.7071C77.6737 44.6775 75.5167 45.1615 73.3371 45.1158C70.7322 45.1383 68.1746 44.4342 65.9641 43.0859C63.6985 41.6921 61.8735 39.7097 60.6931 37.36C59.369 34.7266 58.7093 31.8211 58.7691 28.887C58.7113 25.977 59.3727 23.0965 60.6971 20.4903M82.7231 24.0689C82.0092 22.7529 80.9315 21.6596 79.6131 20.9139C78.3374 20.1899 76.8879 19.8107 75.4131 19.8153C73.9309 19.8009 72.473 20.1847 71.1983 20.9249C69.9236 21.6651 68.8811 22.7333 68.1841 24.0131C67.3639 25.5098 66.9555 27.1893 66.9991 28.887C66.959 30.6019 67.3653 32.2986 68.1801 33.8176C68.8966 35.1539 69.9718 36.2741 71.2901 37.0577C72.5308 37.7972 73.9562 38.1872 75.4091 38.1846C76.8839 38.1892 78.3334 37.81 79.6091 37.086C80.9277 36.3397 82.0053 35.2458 82.7191 33.9291C83.4774 32.3913 83.8712 30.7059 83.8712 28.9985C83.8712 27.2911 83.4774 25.6057 82.7191 24.0679" fill="white"/>
<path d="M111.934 14.3496C113.683 13.391 115.661 12.9048 117.665 12.9408V21.2289H115.533C113.465 21.0778 111.416 21.7022 109.802 22.9752C108.514 24.1406 107.871 26.1693 107.872 29.0611V44.6101H99.809V13.3918H107.872V18.2383C108.866 16.6265 110.264 15.2887 111.932 14.3505" fill="white"/>
<path d="M124.698 20.4913C125.87 18.1709 127.685 16.2189 129.935 14.8573C132.165 13.5367 134.728 12.8535 137.335 12.8851C139.506 12.8367 141.655 13.3211 143.586 14.2938C145.27 15.1486 146.736 16.3618 147.877 17.844V13.3908H155.999V44.6101H147.877V40.0454C146.764 41.5746 145.293 42.8205 143.587 43.6787C141.64 44.6656 139.472 45.16 137.28 45.1168C134.684 45.1422 132.135 44.4376 129.936 43.0869C127.685 41.6856 125.873 39.7044 124.699 37.3609C123.372 34.7256 122.711 31.8172 122.771 28.8801C122.713 25.9701 123.374 23.0895 124.699 20.4835M146.725 24.062C146.011 22.7461 144.933 21.6529 143.615 20.9071C142.339 20.183 140.89 19.8039 139.415 19.8084C137.933 19.7941 136.475 20.1779 135.2 20.9181C133.926 21.6583 132.883 22.7264 132.186 24.0063C131.367 25.5036 130.96 27.1835 131.005 28.8811C130.965 30.596 131.371 32.2927 132.186 33.8117C132.903 35.1481 133.978 36.2682 135.296 37.0518C136.537 37.7913 137.962 38.1813 139.415 38.1788C140.89 38.1833 142.339 37.8041 143.615 37.0802C144.934 36.3338 146.011 35.2399 146.725 33.9232C147.483 32.3854 147.877 30.7 147.877 28.9926C147.877 27.2852 147.483 25.5999 146.725 24.062Z" fill="white"/>
<path d="M197.732 0.5224H168.783C168.168 0.536253 167.584 0.788491 167.159 1.22365C166.734 1.6588 166.503 2.24125 166.517 2.84291V29.5053C166.518 32.0607 167.541 34.5144 169.367 36.3416L177.133 44.1092C178.491 45.4713 180.285 46.3381 182.216 46.5657L184.608 46.5246C186.424 46.2452 188.099 45.3994 189.383 44.1131L197.149 36.3455C198.975 34.5182 199.997 32.0645 199.998 29.5092V2.84486C200.012 2.24295 199.782 1.66014 199.357 1.22462C198.932 0.789095 198.347 0.536506 197.732 0.5224ZM186.232 29.2998C184.97 29.8065 183.618 30.0664 182.254 30.0648C182.173 30.0648 182.092 30.0648 182.012 30.0648H173.912L175.987 28.0349C174.237 26.7588 172.938 24.9803 172.27 22.9474C171.603 20.9144 171.6 18.7283 172.264 16.694C172.927 14.6597 174.222 12.8786 175.97 11.599C177.717 10.3194 179.829 9.6052 182.011 9.55594V13.8017C181.032 13.8394 180.077 14.1053 179.225 14.5773C178.372 15.0493 177.647 15.7138 177.111 16.5153C176.574 17.3169 176.241 18.2323 176.139 19.1854C176.037 20.1384 176.169 21.1015 176.525 21.9943C176.881 22.8872 177.449 23.6839 178.184 24.3182C178.918 24.9525 179.796 25.406 180.746 25.6408C181.696 25.8756 182.689 25.8851 183.643 25.6683C184.597 25.4516 185.485 25.0149 186.231 24.3947L186.232 29.2998ZM192.739 19.8104V30.0668H188.401V19.8065C188.403 18.3092 187.832 16.8654 186.801 15.7593L184.182 18.3214V9.71834H192.975L189.875 12.751C191.721 14.6537 192.748 17.1777 192.744 19.8006" fill="white"/>
</g>
</svg>
